HIERARCHY
ROOT Hips
{
	OFFSET 0.00000 0.00000 0.00000
	CHANNELS 6 Xposition Yposition Zposition Zrotation Yrotation Xrotation 
	JOINT LHipJoint
	{
		OFFSET 0 0 0
		CHANNELS 3 Zrotation Yrotation Xrotation
		JOINT LeftUpLeg
		{
			OFFSET 1.39187 -1.60231 0.69152
			CHANNELS 3 Zrotation Yrotation Xrotation
			JOINT LeftLeg
			{
				OFFSET 2.43314 -6.68499 0.00000
				CHANNELS 3 Zrotation Yrotation Xrotation
				JOINT LeftFoot
				{
					OFFSET 2.32059 -6.37578 0.00000
					CHANNELS 3 Zrotation Yrotation Xrotation
					JOINT LeftToeBase
					{
						OFFSET 0.23021 -0.63250 1.71305
						CHANNELS 3 Zrotation Yrotation Xrotation
						End Site
						{
							OFFSET 0.00000 -0.00000 0.91647
						}
					}
				}
			}
		}
	}
	JOINT RHipJoint
	{
		OFFSET 0 0 0
		CHANNELS 3 Zrotation Yrotation Xrotation
		JOINT RightUpLeg
		{
			OFFSET -1.19407 -1.60231 0.69152
			CHANNELS 3 Zrotation Yrotation Xrotation
			JOINT RightLeg
			{
				OFFSET -2.44411 -6.71513 0.00000
				CHANNELS 3 Zrotation Yrotation Xrotation
				JOINT RightFoot
				{
					OFFSET -2.31924 -6.37207 0.00000
					CHANNELS 3 Zrotation Yrotation Xrotation
					JOINT RightToeBase
					{
						OFFSET -0.19473 -0.53502 1.87724
						CHANNELS 3 Zrotation Yrotation Xrotation
						End Site
						{
							OFFSET -0.00000 -0.00000 0.98293
						}
					}
				}
			}
		}
	}
	JOINT LowerBack
	{
		OFFSET 0 0 0
		CHANNELS 3 Zrotation Yrotation Xrotation
		JOINT Spine
		{
			OFFSET -0.01120 1.87307 0.09613
			CHANNELS 3 Zrotation Yrotation Xrotation
			JOINT Spine1
			{
				OFFSET 0.01099 1.87818 0.04834
				CHANNELS 3 Zrotation Yrotation Xrotation
				JOINT Neck
				{
					OFFSET 0 0 0
					CHANNELS 3 Zrotation Yrotation Xrotation
					JOINT Neck1
					{
						OFFSET 0.01702 1.40324 -0.12579
						CHANNELS 3 Zrotation Yrotation Xrotation
						JOINT Head
						{
							OFFSET -0.04239 1.38587 -0.01614
							CHANNELS 3 Zrotation Yrotation Xrotation
							End Site
							{
								OFFSET -0.02510 1.47031 -0.00154
							}
						}
					}
				}
				JOINT LeftShoulder
				{
					OFFSET 0 0 0
					CHANNELS 3 Zrotation Yrotation Xrotation
					JOINT LeftArm
					{
						OFFSET 2.95699 0.62343 0.11653
						CHANNELS 3 Zrotation Yrotation Xrotation
						JOINT LeftForeArm
						{
							OFFSET 4.68382 -0.00000 -0.00000
							CHANNELS 3 Zrotation Yrotation Xrotation
							JOINT LeftHand
							{
								OFFSET 2.98124 -0.00000 -0.00000
								CHANNELS 3 Zrotation Yrotation Xrotation
								JOINT LeftFingerBase
								{
									OFFSET 0 0 0
									CHANNELS 3 Zrotation Yrotation Xrotation
									JOINT LeftHandIndex1
									{
										OFFSET 0.70759 -0.00000 0.00000
										CHANNELS 3 Zrotation Yrotation Xrotation
										End Site
										{
											OFFSET 0.57048 -0.00000 0.00000
										}
									}
								}
								JOINT LThumb
								{
									OFFSET 0 0 0
									CHANNELS 3 Zrotation Yrotation Xrotation
									End Site
									{
										OFFSET 0.57919 -0.00000 0.57919
									}
								}
							}
						}
					}
				}
				JOINT RightShoulder
				{
					OFFSET 0 0 0
					CHANNELS 3 Zrotation Yrotation Xrotation
					JOINT RightArm
					{
						OFFSET -2.99027 0.88714 -0.02793
						CHANNELS 3 Zrotation Yrotation Xrotation
						JOINT RightForeArm
						{
							OFFSET -4.75876 -0.00000 -0.00000
							CHANNELS 3 Zrotation Yrotation Xrotation
							JOINT RightHand
							{
								OFFSET -2.93293 -0.00000 -0.00000
								CHANNELS 3 Zrotation Yrotation Xrotation
								JOINT RightFingerBase
								{
									OFFSET 0 0 0
									CHANNELS 3 Zrotation Yrotation Xrotation
									JOINT RightHandIndex1
									{
										OFFSET -0.83175 -0.00000 0.00000
										CHANNELS 3 Zrotation Yrotation Xrotation
										End Site
										{
											OFFSET -0.67058 -0.00000 0.00000
										}
									}
								}
								JOINT RThumb
								{
									OFFSET 0 0 0
									CHANNELS 3 Zrotation Yrotation Xrotation
									End Site
									{
										OFFSET -0.68082 -0.00000 0.68082
									}
								}
							}
						}
					}
				}
			}
		}
	}
}
MOTION
Frames: 9
Frame Time: .0083333
5.5647 27.4942 1.4389 672.4290 96.9209 691.0190 0.0000 0.0000 0.0000 -13.0912 -20.4848 -36.3660 5.7934 14.2251 44.1468 -0.3803 -11.8216 -0.6631 0.4645 -4.3716 -12.1245 0.0000 0.0000 0.0000 15.5877 23.3300 -19.7722 -1.0472 -6.5077 18.2649 1.8218 -23.0726 -9.7644 -0.0163 -0.8246 2.2663 -6.4999 -0.6822 -11.8484 -1.0336 0.0649 -3.0040 2.5950 0.0564 3.4875 -2.5407 -0.6450 4.2673 5.3524 -0.3894 -10.5906 2.2847 -0.2868 -4.2516 0.0000 0.0000 0.0000 -83.7760 4.8785 24.2881 57.5957 -55.6345 -32.3483 -0.0000 -0.0000 9.7012 13.1384 17.7189 4.0634 -7.1250 0.0000 -0.0000 -14.2506 47.6228 -0.9403 0.0000 0.0000 0.0000 81.1372 -6.6499 47.8213 -52.0187 53.7779 -27.7946 0.0000 -0.0000 -10.7519 -30.2838 9.6189 -5.5732 7.1250 -0.0000 -0.0000 -2.3448 -18.8814 -1.4611
5.5554 27.4939 1.4380 671.5330 96.7476 690.0350 0.0000 0.0000 0.0000 -13.0921 -20.2791 -36.4296 5.8391 14.2706 44.3327 -0.3887 -11.9196 -0.5975 0.4632 -4.3655 -12.1073 0.0000 0.0000 0.0000 15.7107 23.0207 -19.7943 -1.0405 -6.4875 18.2056 1.7394 -22.5856 -9.6503 -0.0162 -0.8215 2.2577 -6.4500 -0.5965 -11.6259 -1.0547 0.1530 -2.9615 2.5570 0.1002 3.4019 -2.5043 -0.6268 4.3754 5.3485 -0.3442 -10.9096 2.2828 -0.2662 -4.3905 0.0000 0.0000 0.0000 -84.1603 5.7444 23.9392 56.1531 -55.1945 -31.1607 -0.0000 -0.0000 9.6124 12.4070 17.6632 3.8188 -7.1250 0.0000 -0.0000 -14.9068 47.4684 -0.9276 0.0000 0.0000 0.0000 81.4892 -6.7845 47.6666 -50.6983 53.2733 -26.7328 0.0000 -0.0000 -10.6250 -30.3838 9.6461 -5.6110 7.1250 -0.0000 -0.0000 -2.4130 -18.8394 -1.5059
5.5485 27.4951 1.4382 670.5750 96.5558 688.9960 0.0000 0.0000 0.0000 -13.0777 -20.0426 -36.5232 5.8876 14.3185 44.5288 -0.3993 -12.0371 -0.5075 0.4522 -4.3143 -11.9625 0.0000 0.0000 0.0000 15.8614 22.6679 -19.8247 -1.0332 -6.4652 18.1402 1.6455 -22.0124 -9.4701 -0.0120 -0.7063 1.9410 -6.4392 -0.5060 -11.4610 -1.0452 0.2558 -2.9444 2.5749 0.1520 3.3197 -2.4503 -0.6228 4.6776 5.4903 -0.2869 -11.6446 2.0958 -0.2729 -4.2273 0.0000 0.0000 0.0000 -84.5774 6.6074 23.6932 54.7677 -54.7463 -30.0262 -0.0000 -0.0000 9.2943 12.0001 18.3339 3.8252 -7.1250 0.0000 -0.0000 -15.5248 48.0682 -1.2023 0.0000 0.0000 0.0000 81.7335 -6.9338 47.5013 -49.5238 52.8016 -25.7944 0.0000 -0.0000 -10.7999 -29.9206 9.6673 -5.5201 7.1250 -0.0000 -0.0000 -2.0842 -18.8646 -1.2992
5.5469 27.4949 1.4414 671.2110 96.5969 689.6460 0.0000 0.0000 0.0000 -13.0044 -20.0240 -36.7284 5.9373 14.3673 44.7294 -0.4160 -12.1974 -0.3074 0.4480 -4.2942 -11.9058 0.0000 0.0000 0.0000 15.8582 22.8418 -19.7327 -1.0233 -6.4351 18.0521 1.6750 -22.1946 -9.5329 -0.0231 -0.9815 2.6980 -6.4627 -0.5369 -11.5005 -1.0199 0.2201 -2.9116 2.6098 0.1312 3.3788 -2.3642 -0.6395 5.1744 5.4490 -0.2792 -12.2669 2.0765 -0.2799 -4.5014 -0.0000 -0.0000 0.0000 -84.9817 7.3569 23.4105 53.2901 -54.2392 -28.8233 -0.0000 -0.0000 8.8368 11.9063 18.3231 3.7923 -7.1250 0.0000 -0.0000 -15.6077 48.0446 -1.1997 -0.0000 -0.0000 0.0000 81.9579 -7.0398 47.5505 -48.1478 52.2206 -24.7025 0.0000 -0.0000 -10.3006 -30.5733 9.3457 -5.4799 7.1250 -0.0000 -0.0000 -2.5731 -19.1642 -1.5874
5.5409 27.4970 1.4447 671.3910 96.4410 689.9300 0.0000 0.0000 0.0000 -12.8048 -19.9074 -37.0532 5.9866 14.4154 44.9279 -0.4279 -12.2920 -0.1133 0.4254 -4.1861 -11.6008 0.0000 0.0000 0.0000 15.9494 22.8468 -19.8641 -1.0161 -6.4132 17.9882 1.6459 -22.0199 -9.5917 -0.0392 -1.2787 3.5160 -6.2849 -0.4816 -11.3817 -1.0560 0.2628 -3.0243 2.4774 0.1626 3.1930 -2.2334 -0.6638 5.4131 5.4423 -0.2858 -12.5621 2.0572 -0.2928 -4.6323 0.0000 -0.0000 0.0000 -85.3056 8.1986 22.9297 51.6709 -53.6476 -27.5143 -0.0000 -0.0000 8.6024 11.7114 17.0908 3.4863 -7.1250 0.0000 -0.0000 -15.3455 46.8161 -0.7039 0.0000 -0.0000 0.0000 82.3905 -7.3126 47.3449 -46.8930 51.6629 -23.7145 0.0000 -0.0000 -10.1685 -30.5887 9.3740 -5.4997 7.1250 -0.0000 -0.0000 -2.5816 -19.1300 -1.5946
5.5316 27.4986 1.4461 670.7560 96.2417 689.3180 0.0000 0.0000 0.0000 -12.6888 -19.7779 -37.2632 6.0377 14.4648 45.1330 -0.4315 -12.2812 0.0535 0.4051 -4.0862 -11.3193 0.0000 0.0000 0.0000 16.0784 22.5724 -20.0307 -1.0112 -6.3981 17.9439 1.5718 -21.5547 -9.4594 -0.0349 -1.2051 3.3132 -6.3399 -0.4398 -11.6436 -0.9516 0.3426 -2.7427 2.6308 0.1783 3.6239 -2.2516 -0.7060 5.0732 5.3543 -0.3335 -12.7753 2.0352 -0.3031 -4.6381 0.0000 0.0000 0.0000 -85.9207 8.3689 22.2568 49.8985 -52.9545 -26.0931 -0.0000 -0.0000 8.5999 11.2233 16.4449 3.2151 -7.1250 0.0000 -0.0000 -15.5688 46.1234 -0.4423 0.0000 0.0000 0.0000 82.4750 -6.8947 47.1301 -45.4725 50.9979 -22.6054 0.0000 -0.0000 -10.3890 -29.9763 10.1488 -5.8033 7.1250 -0.0000 -0.0000 -2.0824 -18.3084 -1.3237
5.5243 27.4974 1.4441 671.5170 96.4083 689.9950 0.0000 0.0000 0.0000 -12.7225 -19.9251 -37.3306 6.0903 14.5153 45.3432 -0.4426 -12.3470 0.3091 0.3962 -4.0413 -11.1930 0.0000 0.0000 0.0000 16.0492 22.4480 -19.9567 -1.0053 -6.3801 17.8915 1.5799 -21.6047 -9.4426 -0.0348 -1.2037 3.3094 -6.2161 -0.4684 -10.9901 -1.0764 0.2390 -2.9846 2.4126 0.1529 3.0217 -2.1339 -0.7455 4.9890 5.3961 -0.3818 -12.5507 2.0287 -0.3330 -4.5536 0.0000 0.0000 0.0000 -86.1388 9.4642 21.7459 48.5432 -52.3908 -25.0154 -0.0000 -0.0000 8.5531 10.5559 16.6239 3.0517 -7.1250 0.0000 -0.0000 -16.2345 46.2136 -0.4993 0.0000 0.0000 0.0000 82.7740 -7.3644 47.3973 -44.6419 50.5918 -21.9617 0.0000 -0.0000 -10.2607 -30.5170 9.3867 -5.4913 7.1250 -0.0000 -0.0000 -2.5297 -19.1231 -1.5629
5.5146 27.4957 1.4445 671.8840 96.3191 690.4860 0.0000 0.0000 0.0000 -12.5388 -19.8948 -37.7037 6.1460 14.5684 45.5649 -0.4554 -12.4470 0.5411 0.4085 -4.1029 -11.3662 0.0000 0.0000 0.0000 16.1054 22.3604 -20.1955 -1.0050 -6.3792 17.8887 1.5408 -21.3548 -9.3677 -0.0314 -1.1443 3.1460 -6.2803 -0.4642 -11.2058 -0.9600 0.2651 -2.7833 2.5750 0.1484 3.3476 -2.1349 -0.7295 4.7982 5.3274 -0.3405 -12.8960 2.0072 -0.3040 -4.6286 0.0000 0.0000 0.0000 -86.6612 9.6619 21.2529 47.0578 -51.7377 -23.8438 -0.0000 -0.0000 8.6585 10.1339 16.7984 2.9570 -7.1250 0.0000 -0.0000 -16.6777 46.3293 -0.5626 0.0000 0.0000 0.0000 82.7193 -7.0882 47.3669 -43.7018 50.1164 -21.2378 0.0000 -0.0000 -10.4075 -30.4041 9.5473 -5.5589 7.1250 -0.0000 -0.0000 -2.4360 -18.9506 -1.5142
5.5017 27.4934 1.4522 670.4790 95.9068 689.4510 0.0000 0.0000 0.0000 -12.2057 -19.6104 -38.3861 6.2029 14.6221 45.7907 -0.4602 -12.4658 0.6898 0.4514 -4.3106 -11.9521 0.0000 0.0000 0.0000 16.1691 22.4013 -20.8074 -1.0140 -6.4069 17.9697 1.4554 -20.7952 -9.1974 -0.0239 -0.9980 2.7433 -6.2831 -0.3542 -11.8384 -0.8779 0.4621 -2.5502 2.6954 0.2214 3.9222 -2.2831 -0.7257 4.6617 5.4447 -0.2959 -13.3799 2.0690 -0.2770 -4.7540 -0.0000 0.0000 0.0000 -87.0548 9.6435 20.8126 45.5426 -51.0316 -22.6599 -0.0000 -0.0000 8.7166 9.8898 16.8921 2.9001 -7.1250 0.0000 -0.0000 -16.9319 46.3888 -0.5972 -0.0000 0.0000 0.0000 82.7880 -6.7278 47.1953 -42.7625 49.6240 -20.5197 0.0000 -0.0000 -10.1794 -30.1369 9.7903 -5.6378 7.1250 -0.0000 -0.0000 -2.2264 -18.7008 -1.3961
